#N canvas 653 154 633 469 10;
#X obj 181 60 noise~;
#X obj 325 10 bng 15 250 50 0 empty empty empty 17 7 0 10 -262144 -1
-1;
#X obj 211 162 line~;
#X obj 181 192 *~;
#X msg 211 134 1 \, 0 70;
#X obj 181 60 noise~;
#X obj 211 162 line~;
#X obj 181 192 *~;
#X obj 271 80 noise~;
#X obj 301 182 line~;
#X obj 271 212 *~;
#X obj 181 246 +~;
#X obj 361 100 noise~;
#X obj 391 202 line~;
#X obj 361 232 *~;
#X obj 181 308 +~;
#X obj 181 350 +~;
#X obj 181 394 dac~;
#X obj 326 80 del 30;
#X obj 416 100 del 40;
#X obj 451 121 noise~;
#X obj 481 223 line~;
#X obj 451 253 *~;
#X obj 325 30 t b b b b;
#X obj 506 121 del 50;
#X obj 261 372 hip~ 200;
#X obj 181 372 bp~ 500 0.12;
#X msg 211 134 1 \, 0 25;
#X msg 301 154 1 \, 0 25;
#X msg 391 174 1 \, 0 25;
#X msg 481 195 1 \, 0 25;
#X connect 0 0 3 0;
#X connect 1 0 23 0;
#X connect 2 0 3 1;
#X connect 4 0 2 0;
#X connect 5 0 7 0;
#X connect 6 0 7 1;
#X connect 7 0 11 0;
#X connect 8 0 10 0;
#X connect 9 0 10 1;
#X connect 10 0 11 1;
#X connect 11 0 15 0;
#X connect 12 0 14 0;
#X connect 13 0 14 1;
#X connect 14 0 15 1;
#X connect 15 0 16 0;
#X connect 16 0 26 0;
#X connect 18 0 28 0;
#X connect 19 0 29 0;
#X connect 20 0 22 0;
#X connect 21 0 22 1;
#X connect 22 0 16 1;
#X connect 23 0 27 0;
#X connect 23 1 18 0;
#X connect 23 2 19 0;
#X connect 23 3 24 0;
#X connect 24 0 30 0;
#X connect 26 0 17 0;
#X connect 26 0 17 1;
#X connect 27 0 6 0;
#X connect 28 0 9 0;
#X connect 29 0 13 0;
#X connect 30 0 21 0;
