#N canvas 179 106 916 575 10;
#X obj 227 146 phasor~ \$1;
#X msg 226 77 65;
#X obj 226 99 mtof;
#X obj 347 268 *~;
#X obj 389 229 line~;
#X obj 228 410 dac~;
#X msg 552 78 \; pd dsp \$1;
#X obj 552 56 tgl 15 0 empty empty empty 17 7 0 10 -262144 -1 -1 1
1;
#X floatatom 244 124 5 0 0 0 - - -, f 5;
#X obj 226 99 mtof;
#X floatatom 244 124 5 0 0 0 - - -, f 5;
#X msg 389 205 1 \, 0 500;
#X obj 227 349 moog~;
#X obj 285 320 sig~;
#X msg 246 277 800 \, 0 250;
#X obj 246 299 line~;
#X msg 226 77 32;
#X msg 285 298 3;
#X obj 227 211 expr~ $v1 < 0.5;
#X obj 157 172 phasor~ \$1;
#X obj 157 148 + 0.5;
#X connect 0 0 18 0;
#X connect 1 0 2 0;
#X connect 2 0 8 0;
#X connect 4 0 3 1;
#X connect 7 0 6 0;
#X connect 9 0 10 0;
#X connect 9 0 0 0;
#X connect 9 0 20 0;
#X connect 11 0 4 0;
#X connect 12 0 5 0;
#X connect 12 0 5 1;
#X connect 13 0 12 2;
#X connect 14 0 15 0;
#X connect 14 0 12 1;
#X connect 15 0 12 1;
#X connect 16 0 9 0;
#X connect 17 0 13 0;
#X connect 18 0 12 0;
#X connect 19 0 18 0;
#X connect 20 0 19 0;
