#N canvas 386 191 610 590 10;
#X obj 227 146 phasor~ \$1;
#X obj 299 345 sig~;
#X obj 244 299 line~;
#X obj 227 211 expr~ $v1 < 0.5;
#X obj 157 172 phasor~ \$1;
#X obj 157 148 + 0.5;
#X obj 299 299 loadbang;
#X text 34 204 square wave ->;
#X obj 130 212 expr~ $v1 < 0.5;
#X obj 192 312 +~;
#X obj 80 150 - 12;
#X obj 80 172 phasor~ \$1;
#X obj 79 262 *~ 0.5;
#X obj 177 360 +~;
#X obj 79 240 expr~ $v1 < 0.7;
#X obj 226 76 t f b b;
#X obj 267 451 *~;
#X obj 366 359 line~;
#X obj 267 473 outlet~;
#X obj 226 49 inlet;
#X obj 234 402 bob~;
#X obj 244 243 mtof;
#X obj 244 112 + 12;
#X msg 299 323 2.5;
#X obj 244 268 pack 50 0;
#X msg 387 323 1 \, 0 150;
#X connect 0 0 3 0;
#X connect 1 0 20 2;
#X connect 2 0 20 1;
#X connect 3 0 9 1;
#X connect 4 0 8 0;
#X connect 5 0 4 0;
#X connect 6 0 23 0;
#X connect 8 0 9 0;
#X connect 9 0 13 1;
#X connect 10 0 11 0;
#X connect 11 0 14 0;
#X connect 12 0 13 0;
#X connect 13 0 20 0;
#X connect 14 0 12 0;
#X connect 15 0 10 0;
#X connect 15 0 5 0;
#X connect 15 0 0 0;
#X connect 15 0 22 0;
#X connect 15 2 25 0;
#X connect 16 0 18 0;
#X connect 17 0 16 1;
#X connect 19 0 15 0;
#X connect 20 0 16 0;
#X connect 21 0 24 0;
#X connect 22 0 21 0;
#X connect 23 0 1 0;
#X connect 24 0 2 0;
#X connect 25 0 17 0;
