#N canvas 390 71 619 574 10;
#X obj 78 153 t f f b;
#X obj 78 18 tgl 15 0 empty empty empty 17 7 0 10 -262144 -1 -1 1 1
;
#X obj 78 38 metro 500;
#X obj 78 60 f;
#X obj 106 60 + 1;
#X obj 78 82 % 16;
#X floatatom 78 104 5 0 0 0 - - -, f 5;
#X obj 78 125 tabread bla;
#X msg 257 41 \; bla 0 32 43 32 54 66 66 74 24 66 45 98 66 54 44 55
75;
#X obj 333 97 table bla 16;
#X obj 78 219 phasor~ \$1;
#X obj 78 195 mtof;
#X obj 153 234 mtof;
#X obj 153 278 pack 0 300;
#X obj 153 300 line~;
#X obj 78 463 *~;
#X obj 93 439 line~;
#X msg 120 403 1 \, 0 350;
#X obj 78 505 dac~;
#X obj 153 256 * 1.5;
#X obj 78 371 vcf~ 220 2;
#X connect 0 0 11 0;
#X connect 0 1 12 0;
#X connect 0 2 17 0;
#X connect 1 0 2 0;
#X connect 2 0 3 0;
#X connect 3 0 4 0;
#X connect 3 0 5 0;
#X connect 4 0 3 1;
#X connect 5 0 6 0;
#X connect 6 0 7 0;
#X connect 7 0 0 0;
#X connect 10 0 20 0;
#X connect 11 0 10 0;
#X connect 12 0 19 0;
#X connect 13 0 14 0;
#X connect 14 0 20 1;
#X connect 15 0 18 0;
#X connect 15 0 18 1;
#X connect 16 0 15 1;
#X connect 17 0 16 0;
#X connect 19 0 13 0;
#X connect 20 0 15 0;
