#N canvas 535 163 752 556 10;
#X obj 84 25 inlet;
#X msg 84 47 1 0 \, 0 11 0 \, 1 0 11 \, 1 0 23 \, 0 8 23 \, 1 0 31
\, 0 50 31;
#X obj 84 69 vline~;
#X obj 84 91 pow~ 3;
#X obj 84 153 *~;
#X obj 84 175 *~ 0.7;
#X obj 114 207 bp~ 1000 5;
#X obj 84 239 lop~ 3000;
#X obj 84 261 hip~ 600;
#X obj 234 373 outlet~;
#X msg 300 91 1 36 \, 0 440 36;
#X obj 300 113 vline~;
#X obj 300 135 pow~ 1.8;
#X obj 300 187 *~;
#X obj 300 209 bp~ 1100 3;
#X obj 147 91 noise~;
#X obj 300 231 *~ 0.4;
#X connect 0 0 1 0;
#X connect 0 0 10 0;
#X connect 1 0 2 0;
#X connect 2 0 3 0;
#X connect 3 0 4 0;
#X connect 4 0 5 0;
#X connect 5 0 6 0;
#X connect 5 0 7 0;
#X connect 6 0 7 0;
#X connect 7 0 8 0;
#X connect 8 0 9 0;
#X connect 10 0 11 0;
#X connect 11 0 12 0;
#X connect 12 0 13 0;
#X connect 13 0 14 0;
#X connect 14 0 16 0;
#X connect 15 0 4 1;
#X connect 15 0 13 1;
#X connect 16 0 9 0;
