#N canvas 264 246 450 300 10;
#X obj 89 53 -~ 0.5;
#X obj 89 75 abs~;
#X obj 89 97 *~ 4;
#X obj 89 119 -~ 1;
#X obj 89 191 *~;
#X obj 110 169 line~;
#X obj 89 29 phasor~ 2000;
#X msg 110 147 1 \, 0 25;
#X obj 182 84 inlet;
#X obj 89 233 outlet~;
#X connect 0 0 1 0;
#X connect 1 0 2 0;
#X connect 2 0 3 0;
#X connect 3 0 4 0;
#X connect 4 0 9 0;
#X connect 5 0 4 1;
#X connect 6 0 0 0;
#X connect 7 0 5 0;
#X connect 8 0 7 0;
