#N canvas 493 188 732 369 10;
#X obj 123 15 inlet;
#X obj 223 107 metro;
#X obj 203 15 inlet;
#X obj 255 67 expr 60000/(8*$f1);
#X obj 267 15 loadbang;
#X obj 267 37 f \$1;
#X text 60 14 toggle;
#X text 337 13 tempo (bpm);
#X obj 193 149 f;
#X obj 233 149 + 1;
#X obj 33 221 mod 32;
#X obj 33 243 select 0;
#X obj 33 275 outlet;
#X obj 103 243 select 0;
#X obj 103 275 outlet;
#X obj 103 221 mod 16;
#X obj 173 243 select 0;
#X obj 173 275 outlet;
#X obj 173 221 mod 8;
#X obj 243 243 select 0;
#X obj 243 275 outlet;
#X obj 243 221 mod 4;
#X obj 313 243 select 0;
#X obj 313 275 outlet;
#X obj 313 221 mod 2;
#X obj 443 275 outlet;
#X text 23 295 hele noot;
#X text 93 295 1/2 noot;
#X text 167 295 1/4 noot;
#X text 237 296 1/8 noot;
#X text 306 297 1/16 noot;
#X text 431 295 1/32 noot;
#X obj 523 15 inlet;
#X msg 523 37 0;
#X text 571 13 reset;
#X connect 0 0 1 0;
#X connect 1 0 8 0;
#X connect 1 0 25 0;
#X connect 2 0 3 0;
#X connect 3 0 1 1;
#X connect 4 0 5 0;
#X connect 5 0 3 0;
#X connect 8 0 9 0;
#X connect 8 0 10 0;
#X connect 8 0 15 0;
#X connect 8 0 18 0;
#X connect 8 0 21 0;
#X connect 8 0 24 0;
#X connect 9 0 8 1;
#X connect 10 0 11 0;
#X connect 11 0 12 0;
#X connect 13 0 14 0;
#X connect 15 0 13 0;
#X connect 16 0 17 0;
#X connect 18 0 16 0;
#X connect 19 0 20 0;
#X connect 21 0 19 0;
#X connect 22 0 23 0;
#X connect 24 0 22 0;
#X connect 32 0 33 0;
#X connect 33 0 8 0;
