#N canvas 433 184 450 391 10;
#X obj 51 73 -~ 0.5;
#X obj 51 95 abs~;
#X obj 51 117 *~ 4;
#X obj 51 139 -~ 1;
#X obj 201 73 -~ 0.5;
#X obj 201 95 abs~;
#X obj 201 117 *~ 4;
#X obj 201 139 -~ 1;
#X obj 51 49 phasor~ 587;
#X obj 201 49 phasor~ 845;
#X obj 126 207 +~;
#X obj 126 279 *~;
#X obj 163 248 line~;
#X obj 126 311 dac~;
#X msg 163 208 1 \, 0 75;
#X connect 0 0 1 0;
#X connect 1 0 2 0;
#X connect 2 0 3 0;
#X connect 3 0 10 0;
#X connect 4 0 5 0;
#X connect 5 0 6 0;
#X connect 6 0 7 0;
#X connect 7 0 10 1;
#X connect 8 0 0 0;
#X connect 9 0 4 0;
#X connect 10 0 11 0;
#X connect 11 0 13 0;
#X connect 11 0 13 1;
#X connect 12 0 11 1;
#X connect 14 0 12 0;
