#N canvas 310 58 951 676 10;
#X obj 665 65 tgl 15 0 empty empty empty 17 7 0 10 -262144 -1 -1 1
1;
#X obj 307 150 wrap~;
#X obj 306 171 expr~ $v1 < 0.5;
#X obj 305 191 edge~;
#X msg 279 99 0;
#X obj 52 453 line~;
#X obj 51 502 osc~;
#X msg 81 477 0.5;
#X obj 150 463 line~;
#X obj 51 595 dac~;
#X obj 50 542 *~;
#X msg 52 427 110 \, 50 100;
#X msg 150 438 1 \, 0 200;
#X obj 332 213 bng 15 250 50 0 empty empty empty 17 7 0 10 -262144
-1 -1;
#N canvas 1085 479 312 300 bpm 0;
#X floatatom 130 126 5 30 300 0 - - -, f 5;
#X obj 130 170 / 60;
#X floatatom 130 220 5 0 0 0 - - -, f 5;
#X obj 130 244 outlet;
#X obj 179 244 s bpmfreq;
#X obj 130 195 * 4;
#X connect 0 0 1 0;
#X connect 1 0 5 0;
#X connect 2 0 3 0;
#X connect 2 0 4 0;
#X connect 5 0 2 0;
#X coords 0 -1 1 1 85 60 1 100 100;
#X restore 324 55 pd bpm;
#X obj 308 130 phasor~;
#X msg 288 410 1 \, 0 50;
#X obj 288 429 line~;
#X obj 288 385 bng 15 250 50 0 empty empty empty 17 7 0 10 -262144
-1 -1;
#X obj 214 460 *~;
#N canvas 23 676 604 300 hatosc 0;
#N canvas 33 517 450 300 pwm_1 0;
#X obj 87 55 phasor~ 1047;
#X obj 87 91 expr~ $v1 < 0.5;
#X obj 87 125 outlet~;
#X connect 0 0 1 0;
#X connect 1 0 2 0;
#X restore 94 110 pd pwm_1;
#N canvas 726 342 450 300 pwm_2 0;
#X obj 87 91 expr~ $v1 < 0.5;
#X obj 87 125 outlet~;
#X obj 87 55 phasor~ 1481;
#X connect 0 0 1 0;
#X connect 2 0 0 0;
#X restore 154 110 pd pwm_2;
#N canvas 726 321 450 300 pwm_3 0;
#X obj 87 91 expr~ $v1 < 0.5;
#X obj 87 125 outlet~;
#X obj 87 55 phasor~ 1109;
#X connect 0 0 1 0;
#X connect 2 0 0 0;
#X restore 214 110 pd pwm_3;
#N canvas 726 300 450 300 pwm_4 0;
#X obj 87 91 expr~ $v1 < 0.5;
#X obj 87 125 outlet~;
#X obj 87 55 phasor~ 2490;
#X connect 0 0 1 0;
#X connect 2 0 0 0;
#X restore 274 110 pd pwm_4;
#N canvas 726 279 450 300 pwm_5 0;
#X obj 87 91 expr~ $v1 < 0.5;
#X obj 87 125 outlet~;
#X obj 87 55 phasor~ 1397;
#X connect 0 0 1 0;
#X connect 2 0 0 0;
#X restore 334 110 pd pwm_5;
#N canvas 726 258 450 300 pwm_6 0;
#X obj 87 91 expr~ $v1 < 0.5;
#X obj 87 125 outlet~;
#X obj 87 55 phasor~ 2490;
#X connect 0 0 1 0;
#X connect 2 0 0 0;
#X restore 394 110 pd pwm_6;
#X obj 239 233 outlet~;
#X obj 240 168 hip~ 6000;
#X obj 240 188 hip~ 6000;
#X obj 240 208 hip~ 6000;
#X connect 0 0 7 0;
#X connect 1 0 7 0;
#X connect 2 0 7 0;
#X connect 3 0 7 0;
#X connect 4 0 7 0;
#X connect 5 0 7 0;
#X connect 7 0 8 0;
#X connect 8 0 9 0;
#X connect 9 0 6 0;
#X restore 213 410 pd hatosc;
#X obj 332 231 f;
#X obj 366 231 + 1;
#X obj 150 353 bng 15 250 50 0 empty empty empty 17 7 0 10 -262144
-1 -1;
#X obj 213 486 *~ 0.5;
#X obj 305 262 % 16;
#X msg 665 102 \; pd dsp \$1;
#X msg 667 147 \; kik 0 1 1 0 0 0 0 1 0 0 1 1 0 0 0 0 0;
#X obj 617 120 bng 15 250 50 0 empty empty empty 17 7 0 10 -262144
-1 -1;
#X obj 669 445 table hat 16;
#X obj 669 423 table kik 16;
#X obj 150 307 tabread kik;
#X obj 287 337 tabread hat;
#X obj 150 329 sel 1;
#X obj 287 359 sel 1;
#X obj 669 467 table snare 16;
#N canvas 690 202 558 447 snare 0;
#X obj 415 262 line~;
#X obj 375 292 *~;
#X obj 525 262 line~;
#X obj 485 292 *~;
#X obj 425 344 +~;
#X obj 625 262 line~;
#X obj 585 292 *~;
#X obj 585 91 noise~;
#X obj 425 404 +~;
#X obj 375 90 phasor~ 238;
#X obj 485 90 phasor~ 476;
#X obj 585 314 hip~ 523;
#X obj 375 112 -~ 0.5;
#X obj 375 134 abs~;
#X obj 375 156 *~ 4;
#X obj 375 178 -~ 1;
#X text 250 136 triangle wave ->;
#X obj 485 112 -~ 0.5;
#X obj 485 134 abs~;
#X obj 485 156 *~ 4;
#X obj 485 178 -~ 1;
#X obj 425 426 outlet~;
#X obj 624 158 inlet;
#X obj 425 367 *~ 0.7;
#X msg 625 234 1 \, 0 150;
#X msg 415 234 1 \, 0 90;
#X msg 525 234 1 \, 0 90;
#X connect 0 0 1 1;
#X connect 1 0 4 0;
#X connect 2 0 3 1;
#X connect 3 0 4 1;
#X connect 4 0 23 0;
#X connect 5 0 6 1;
#X connect 6 0 11 0;
#X connect 7 0 6 0;
#X connect 8 0 21 0;
#X connect 9 0 12 0;
#X connect 10 0 17 0;
#X connect 11 0 8 1;
#X connect 12 0 13 0;
#X connect 13 0 14 0;
#X connect 14 0 15 0;
#X connect 15 0 1 0;
#X connect 17 0 18 0;
#X connect 18 0 19 0;
#X connect 19 0 20 0;
#X connect 20 0 3 0;
#X connect 22 0 24 0;
#X connect 22 0 26 0;
#X connect 22 0 25 0;
#X connect 23 0 8 0;
#X connect 24 0 5 0;
#X connect 25 0 0 0;
#X connect 26 0 2 0;
#X restore 378 449 pd snare;
#X obj 378 337 tabread snare;
#X obj 378 359 sel 1;
#X obj 378 381 bng 15 250 50 0 empty empty empty 17 7 0 10 -262144
-1 -1;
#X msg 667 192 \; hat 0 1 0 1 1 1 0 1 1 1 0 1 1 1 0 1 1;
#X msg 667 237 \; snare 0 0 0 0 0 1 0 0 0 0 0 0 0 1 0 0 0;
#N canvas 433 184 589 471 claps 1;
#X obj 304 110 noise~;
#X obj 449 130 del 11;
#X obj 539 150 del 23;
#X obj 334 212 line~;
#X obj 304 242 *~;
#X msg 334 184 1 \, 0 70;
#X obj 304 110 noise~;
#X obj 334 212 line~;
#X obj 304 242 *~;
#X obj 394 130 noise~;
#X obj 424 232 line~;
#X obj 394 262 *~;
#X obj 304 296 +~;
#X obj 484 150 noise~;
#X obj 514 252 line~;
#X obj 484 282 *~;
#X obj 304 358 +~;
#X obj 304 400 +~;
#X obj 304 422 hip~ 650;
#X msg 334 184 1 \, 0 50;
#X msg 424 204 1 \, 0 50;
#X msg 514 224 1 \, 0 50;
#X obj 447 50 inlet;
#X obj 304 444 outlet~;
#X connect 0 0 4 0;
#X connect 1 0 20 0;
#X connect 2 0 21 0;
#X connect 3 0 4 1;
#X connect 5 0 3 0;
#X connect 6 0 8 0;
#X connect 7 0 8 1;
#X connect 8 0 12 0;
#X connect 9 0 11 0;
#X connect 10 0 11 1;
#X connect 11 0 12 1;
#X connect 12 0 16 0;
#X connect 13 0 15 0;
#X connect 14 0 15 1;
#X connect 15 0 16 1;
#X connect 16 0 17 0;
#X connect 17 0 18 0;
#X connect 18 0 23 0;
#X connect 19 0 7 0;
#X connect 20 0 10 0;
#X connect 21 0 14 0;
#X connect 22 0 1 0;
#X connect 22 0 2 0;
#X connect 22 0 19 0;
#X restore 473 450 pd claps;
#X obj 670 491 table clap 16;
#X obj 473 341 tabread clap;
#X obj 473 363 sel 1;
#X obj 472 386 bng 15 250 50 0 empty empty empty 17 7 0 10 -262144
-1 -1;
#X msg 667 285 \; clap 0 0 0 0 0 1 0 0 0 0 0 0 0 1 0 0 0;
#X text 565 204 sequences ->;
#X text 770 466 <- sequences stored in tables;
#X connect 0 0 26 0;
#X connect 1 0 2 0;
#X connect 2 0 3 0;
#X connect 3 1 13 0;
#X connect 4 0 15 0;
#X connect 5 0 6 0;
#X connect 6 0 10 0;
#X connect 7 0 6 1;
#X connect 8 0 10 1;
#X connect 10 0 9 0;
#X connect 10 0 9 1;
#X connect 11 0 5 0;
#X connect 12 0 8 0;
#X connect 13 0 21 0;
#X connect 14 0 15 0;
#X connect 15 0 1 0;
#X connect 16 0 17 0;
#X connect 17 0 19 1;
#X connect 18 0 16 0;
#X connect 19 0 24 0;
#X connect 20 0 19 0;
#X connect 21 0 22 0;
#X connect 21 0 25 0;
#X connect 22 0 21 1;
#X connect 23 0 12 0;
#X connect 23 0 7 0;
#X connect 23 0 11 0;
#X connect 24 0 9 0;
#X connect 24 0 9 1;
#X connect 25 0 31 0;
#X connect 25 0 32 0;
#X connect 25 0 37 0;
#X connect 25 0 44 0;
#X connect 28 0 27 0;
#X connect 28 0 40 0;
#X connect 28 0 41 0;
#X connect 28 0 47 0;
#X connect 31 0 33 0;
#X connect 32 0 34 0;
#X connect 33 0 23 0;
#X connect 34 0 18 0;
#X connect 36 0 9 0;
#X connect 36 0 9 1;
#X connect 37 0 38 0;
#X connect 38 0 39 0;
#X connect 39 0 36 0;
#X connect 42 0 9 0;
#X connect 42 0 9 1;
#X connect 44 0 45 0;
#X connect 45 0 46 0;
#X connect 46 0 42 0;
