#N canvas 208 112 1588 897 10;
#X obj 1015 65 tgl 15 0 empty empty empty 17 7 0 10 -262144 -1 -1 1
1;
#X obj 82 453 line~;
#X obj 81 502 osc~;
#X msg 111 477 0.5;
#X obj 180 463 line~;
#X obj 425 832 dac~;
#X obj 80 542 *~;
#X msg 82 427 110 \, 50 100;
#X msg 180 438 1 \, 0 200;
#X obj 362 213 bng 15 250 50 0 empty empty empty 17 7 0 10 -262144
-1 -1;
#X msg 318 410 1 \, 0 50;
#X obj 318 429 line~;
#X obj 318 385 bng 15 250 50 0 empty empty empty 17 7 0 10 -262144
-1 -1;
#X obj 244 460 *~;
#N canvas 23 676 604 300 hatosc 0;
#N canvas 33 517 450 300 pwm_1 0;
#X obj 87 55 phasor~ 1047;
#X obj 87 91 expr~ $v1 < 0.5;
#X obj 87 125 outlet~;
#X connect 0 0 1 0;
#X connect 1 0 2 0;
#X restore 94 110 pd pwm_1;
#N canvas 726 342 450 300 pwm_2 0;
#X obj 87 91 expr~ $v1 < 0.5;
#X obj 87 125 outlet~;
#X obj 87 55 phasor~ 1481;
#X connect 0 0 1 0;
#X connect 2 0 0 0;
#X restore 154 110 pd pwm_2;
#N canvas 726 321 450 300 pwm_3 0;
#X obj 87 91 expr~ $v1 < 0.5;
#X obj 87 125 outlet~;
#X obj 87 55 phasor~ 1109;
#X connect 0 0 1 0;
#X connect 2 0 0 0;
#X restore 214 110 pd pwm_3;
#N canvas 726 300 450 300 pwm_4 0;
#X obj 87 91 expr~ $v1 < 0.5;
#X obj 87 125 outlet~;
#X obj 87 55 phasor~ 2490;
#X connect 0 0 1 0;
#X connect 2 0 0 0;
#X restore 274 110 pd pwm_4;
#N canvas 726 279 450 300 pwm_5 0;
#X obj 87 91 expr~ $v1 < 0.5;
#X obj 87 125 outlet~;
#X obj 87 55 phasor~ 1397;
#X connect 0 0 1 0;
#X connect 2 0 0 0;
#X restore 334 110 pd pwm_5;
#N canvas 726 258 450 300 pwm_6 0;
#X obj 87 91 expr~ $v1 < 0.5;
#X obj 87 125 outlet~;
#X obj 87 55 phasor~ 2490;
#X connect 0 0 1 0;
#X connect 2 0 0 0;
#X restore 394 110 pd pwm_6;
#X obj 239 233 outlet~;
#X obj 240 168 hip~ 6000;
#X obj 240 188 hip~ 6000;
#X obj 240 208 hip~ 6000;
#X connect 0 0 7 0;
#X connect 1 0 7 0;
#X connect 2 0 7 0;
#X connect 3 0 7 0;
#X connect 4 0 7 0;
#X connect 5 0 7 0;
#X connect 7 0 8 0;
#X connect 8 0 9 0;
#X connect 9 0 6 0;
#X restore 243 410 pd hatosc;
#X obj 362 231 f;
#X obj 396 231 + 1;
#X obj 180 353 bng 15 250 50 0 empty empty empty 17 7 0 10 -262144
-1 -1;
#X obj 243 486 *~ 0.5;
#X msg 1015 102 \; pd dsp \$1;
#X obj 967 120 bng 15 250 50 0 empty empty empty 17 7 0 10 -262144
-1 -1;
#X obj 180 307 tabread kik;
#X obj 317 337 tabread hat;
#X obj 180 329 sel 1;
#X obj 317 359 sel 1;
#X obj 408 337 tabread snare;
#X obj 408 359 sel 1;
#X obj 408 381 bng 15 250 50 0 empty empty empty 17 7 0 10 -262144
-1 -1;
#X obj 503 341 tabread clap;
#X obj 503 363 sel 1;
#X obj 502 386 bng 15 250 50 0 empty empty empty 17 7 0 10 -262144
-1 -1;
#X text 915 204 sequences ->;
#X obj 408 449 snare~;
#X obj 335 262 % 32;
#X obj 603 397 bass~;
#X obj 700 340 tabread ringfx;
#X obj 700 414 ringFX~;
#X obj 700 362 sel 1;
#X obj 700 384 bng 15 250 50 0 empty empty empty 17 7 0 10 -262144
-1 -1;
#X obj 700 436 *~ 0.3;
#X obj 603 344 tabread bass;
#X obj 603 366 mtof;
#X obj 808 341 tabread rims;
#X obj 808 363 sel 1;
#X obj 808 385 bng 15 250 50 0 empty empty empty 17 7 0 10 -262144
-1 -1;
#X obj 808 428 rs~;
#X obj 253 586 monoChannel~;
#X obj 310 586 monoChannel~;
#X obj 366 586 monoChannel~;
#X obj 422 586 monoChannel~;
#X obj 479 586 monoChannel~;
#X obj 536 586 monoChannel~;
#X obj 594 587 monoChannel~;
#X obj 540 545 r ringInit;
#X obj 310 545 r hatInit;
#X obj 930 73 loadbang;
#N canvas 433 184 450 300 seqTables 0;
#X text 1340 472 <- sequences stored in tables;
#X obj 1239 473 table snare 32;
#X obj 1239 429 table kik 32;
#X obj 1239 451 table hat 32;
#X obj 1242 522 table bass 32;
#X obj 1239 548 table ringfx 32;
#X obj 1240 568 table rims 32;
#X obj 1240 497 table clap 32;
#X restore 1075 204 pd seqTables;
#N canvas 433 184 903 488 seqs 0;
#X msg 506 239 \; snare 0 0 0 0 0 1 0 0 0 0 0 0 0 1 0 0 0 0 0 0 0 1
0 0 0 0 0 0 0 1 0 1 1, f 74;
#X msg 506 194 \; hat 0 1 0 1 1 1 0 1 1 1 0 1 1 1 0 1 1 1 0 1 1 1 0
1 1 1 0 1 1 1 0 1 1, f 74;
#X msg 506 149 \; kik 0 1 1 0 0 0 0 1 0 0 1 1 0 0 0 0 0 1 1 0 0 0 0
1 0 0 1 1 0 0 0 1 0, f 74;
#X msg 506 367 \; ringfx 0 1 0 0 1 0 0 1 0 0 1 0 0 1 0 0 1 0 0 1 0
0 1 0 0 1 0 0 1 0 0 1 0, f 75;
#X msg 504 411 \; rims 0 0 0 1 0 1 0 0 1 0 0 0 0 1 0 1 1 0 0 1 0 1
0 0 0 1 1 0 0 1 1 1 1, f 73;
#X msg 504 327 \; bass 0 36 36 36 -99 36 -99 -99 35 35 -99 -99 35 -99
-99 36 -99 35 35 35 -99 36 -99 -99 35 35 -99 -99 37 -99 -99 35 -99
, f 119;
#X obj 443 44 inlet;
#X msg 506 287 \; clap 0 0 0 0 0 1 0 0 0 0 0 0 0 1 0 0 0 0 0 0 0 1
0 0 0 0 0 0 0 1 0 0 0, f 74;
#X connect 6 0 2 0;
#X connect 6 0 1 0;
#X connect 6 0 0 0;
#X connect 6 0 7 0;
#X connect 6 0 5 0;
#X connect 6 0 3 0;
#X connect 6 0 4 0;
#X restore 1013 203 pd seqs;
#N canvas 1187 426 450 381 mixInit 1;
#X obj 69 51 inlet;
#X msg 147 169 \; ringInit 0.15;
#X msg 146 98 \; kikInit 0.6;
#X msg 147 206 \; rsInit 0.362;
#X msg 147 244 \; bassInit 0.433;
#X msg 147 283 \; snareInit 0.255;
#X msg 148 322 \; clapInit 0.393;
#X msg 146 134 \; hatInit 0.346;
#X connect 0 0 7 0;
#X connect 0 0 1 0;
#X connect 0 0 2 0;
#X connect 0 0 3 0;
#X connect 0 0 4 0;
#X connect 0 0 5 0;
#X connect 0 0 6 0;
#X restore 1012 169 pd mixInit;
#X obj 215 545 r kikInit;
#X text 874 169 initialize mixer ->;
#X obj 666 545 r rsInit;
#X obj 483 521 r bassInit;
#X obj 378 545 r snareInit;
#X obj 411 521 r clapInit;
#X obj 358 104 tgl 15 0 empty empty empty 17 7 0 10 -262144 -1 -1 1
1;
#X obj 358 127 clockbpm 135;
#X msg 424 192 0;
#X obj 502 449 claps-1~;
#X connect 0 0 19 0;
#X connect 1 0 2 0;
#X connect 2 0 6 0;
#X connect 3 0 2 1;
#X connect 4 0 6 1;
#X connect 6 0 46 0;
#X connect 7 0 1 0;
#X connect 8 0 4 0;
#X connect 9 0 15 0;
#X connect 10 0 11 0;
#X connect 11 0 13 1;
#X connect 12 0 10 0;
#X connect 13 0 18 0;
#X connect 14 0 13 0;
#X connect 15 0 16 0;
#X connect 15 0 33 0;
#X connect 16 0 15 1;
#X connect 17 0 8 0;
#X connect 17 0 3 0;
#X connect 17 0 7 0;
#X connect 18 0 47 0;
#X connect 20 0 57 0;
#X connect 20 0 58 0;
#X connect 21 0 23 0;
#X connect 22 0 24 0;
#X connect 23 0 17 0;
#X connect 24 0 12 0;
#X connect 25 0 26 0;
#X connect 26 0 27 0;
#X connect 27 0 32 0;
#X connect 28 0 29 0;
#X connect 29 0 30 0;
#X connect 30 0 68 0;
#X connect 32 0 48 0;
#X connect 33 0 28 0;
#X connect 33 0 25 0;
#X connect 33 0 22 0;
#X connect 33 0 21 0;
#X connect 33 0 35 0;
#X connect 33 0 40 0;
#X connect 33 0 42 0;
#X connect 34 0 50 0;
#X connect 35 0 37 0;
#X connect 36 0 39 0;
#X connect 37 0 38 0;
#X connect 38 0 36 0;
#X connect 39 0 51 0;
#X connect 40 0 41 0;
#X connect 41 0 34 0;
#X connect 42 0 43 0;
#X connect 43 0 44 0;
#X connect 44 0 45 0;
#X connect 45 0 52 0;
#X connect 46 0 5 0;
#X connect 46 0 5 1;
#X connect 47 0 5 0;
#X connect 47 0 5 1;
#X connect 48 0 5 0;
#X connect 48 0 5 1;
#X connect 49 0 5 0;
#X connect 49 0 5 1;
#X connect 50 0 5 0;
#X connect 50 0 5 1;
#X connect 51 0 5 0;
#X connect 51 0 5 1;
#X connect 52 0 5 0;
#X connect 52 0 5 1;
#X connect 53 0 51 1;
#X connect 54 0 47 1;
#X connect 55 0 20 0;
#X connect 59 0 46 1;
#X connect 61 0 52 1;
#X connect 62 0 50 1;
#X connect 63 0 48 1;
#X connect 64 0 49 1;
#X connect 65 0 66 0;
#X connect 66 4 9 0;
#X connect 67 0 15 0;
#X connect 68 0 49 0;
