#N canvas 166 163 505 334 10;
#X obj 47 38 inlet;
#X obj 47 60 f;
#X obj 87 60 + 1;
#X obj 97 112 mod \$1;
#X obj 97 134 + \$3;
#X obj 97 200 < \$2;
#X obj 97 222 select 1;
#X obj 97 244 outlet;
#X obj 209 100 inlet;
#X obj 249 140 inlet;
#X obj 249 180 inlet;
#X text 257 99 lengte van maat;
#X text 301 139 aantal hits per maat;
#X text 302 179 offset;
#X text 173 222 bang per hit (stilte bij rust);
#X obj 97 178 % \$1;
#X obj 97 156 * \$2;
#X connect 0 0 1 0;
#X connect 1 0 2 0;
#X connect 1 0 3 0;
#X connect 2 0 1 1;
#X connect 3 0 4 0;
#X connect 4 0 16 0;
#X connect 5 0 6 0;
#X connect 6 0 7 0;
#X connect 8 0 3 1;
#X connect 8 0 15 1;
#X connect 9 0 5 1;
#X connect 9 0 16 1;
#X connect 10 0 4 1;
#X connect 15 0 5 0;
#X connect 16 0 15 0;
