#N canvas 433 184 450 300 10;
#X obj 170 131 line~;
#X obj 169 180 osc~;
#X msg 199 155 0.5;
#X obj 168 220 *~;
#X msg 170 105 110 \, 50 100;
#X obj 168 242 dac~;
#X obj 280 44 bng 15 250 50 0 empty empty empty 17 7 0 10 -262144 -1
-1;
#X obj 263 153 line~;
#X msg 263 128 1 \, 0 200;
#X connect 0 0 1 0;
#X connect 1 0 3 0;
#X connect 2 0 1 1;
#X connect 3 0 5 0;
#X connect 3 0 5 1;
#X connect 4 0 0 0;
#X connect 6 0 4 0;
#X connect 6 0 2 0;
#X connect 6 0 8 0;
#X connect 7 0 3 1;
#X connect 8 0 7 0;
