#N canvas 433 184 450 300 10;
#X obj 260 48 vsl 15 128 0 1 0 0 empty empty empty 0 -9 0 10 -262144
-1 -1 0 1;
#X obj 231 240 *~;
#X obj 181 76 inlet~;
#X obj 208 287 outlet~;
#X obj 317 34 inlet init;
#X floatatom 260 187 5 0 0 0 - - -, f 5;
#X connect 0 0 1 1;
#X connect 0 0 5 0;
#X connect 1 0 3 0;
#X connect 2 0 1 0;
#X connect 4 0 0 0;
#X coords 0 -1 1 1 52 183 2 249 28;
