#N canvas 723 72 450 354 10;
#X obj 48 41 osc~ 500;
#X obj 48 123 *~;
#X msg 74 81 1 \, 0 20;
#X obj 74 103 line~;
#X obj 138 123 *~;
#X obj 164 103 line~;
#X obj 139 41 osc~ 1000;
#X msg 164 80 1 \, 0 5;
#X obj 98 175 +~;
#X obj 237 26 bng 15 250 50 0 empty empty empty 17 7 0 10 -262144 -1
-1;
#X obj 98 227 hip~ 222;
#X obj 164 226 bp~ 222 10;
#X obj 125 279 +~;
#X obj 125 321 dac~;
#X connect 0 0 1 0;
#X connect 1 0 8 0;
#X connect 2 0 3 0;
#X connect 3 0 1 1;
#X connect 4 0 8 1;
#X connect 5 0 4 1;
#X connect 6 0 4 0;
#X connect 7 0 5 0;
#X connect 8 0 10 0;
#X connect 8 0 11 0;
#X connect 9 0 2 0;
#X connect 9 0 7 0;
#X connect 10 0 12 0;
#X connect 11 0 12 1;
#X connect 12 0 13 0;
#X connect 12 0 13 1;
