#N canvas 433 184 450 349 10;
#X obj 67 35 pink~;
#X obj 67 169 +~;
#X obj 67 251 *~;
#X msg 94 201 1 \, 0 100;
#X obj 94 223 line~;
#X obj 67 283 dac~;
#X obj 67 97 lop~ 2500;
#X obj 67 116 lop~ 2500;
#X obj 135 96 bp~ 2500 10;
#X connect 0 0 6 0;
#X connect 0 0 8 0;
#X connect 1 0 2 0;
#X connect 2 0 5 0;
#X connect 2 0 5 1;
#X connect 3 0 4 0;
#X connect 4 0 2 1;
#X connect 6 0 7 0;
#X connect 7 0 1 0;
#X connect 8 0 1 1;
