#N canvas 433 184 450 396 10;
#X obj 166 156 bng 15 250 50 0 empty empty empty 17 7 0 10 -262144
-1 -1;
#X obj 166 204 line~;
#X obj 82 287 *~;
#X floatatom 300 83 5 0 0 0 - - -, f 5;
#X obj 300 107 * 0.01;
#X obj 300 129 osc~ 1;
#X obj 300 196 osc~;
#X obj 69 248 *~;
#X obj 300 174 +~ 440;
#X obj 82 316 hip~ 500;
#X obj 27 186 expr~ $v1 > 0.5;
#X obj 46 123 osc~ 2000;
#X msg 166 177 1 \, 0 150;
#X obj 300 152 *~ 66;
#X msg 300 63 8;
#X obj 283 26 loadbang;
#X obj 82 349 outlet~;
#X obj 166 126 inlet;
#X connect 0 0 12 0;
#X connect 1 0 2 1;
#X connect 2 0 9 0;
#X connect 3 0 4 0;
#X connect 4 0 5 0;
#X connect 5 0 13 0;
#X connect 6 0 7 1;
#X connect 7 0 2 0;
#X connect 8 0 6 0;
#X connect 9 0 16 0;
#X connect 10 0 7 0;
#X connect 11 0 10 0;
#X connect 12 0 1 0;
#X connect 13 0 8 0;
#X connect 14 0 3 0;
#X connect 15 0 14 0;
#X connect 17 0 0 0;
