#N canvas 433 184 450 396 10;
#X obj 165 49 tgl 15 0 empty empty empty 17 7 0 10 -262144 -1 -1 0
1;
#X obj 166 69 metro 500;
#X obj 166 91 f;
#X obj 201 91 + 1;
#X obj 166 113 % 16;
#X floatatom 166 135 5 0 0 0 - - -, f 5;
#X msg 128 63 0;
#X obj 166 156 bng 15 250 50 0 empty empty empty 17 7 0 10 -262144
-1 -1;
#X obj 166 204 line~;
#X obj 82 287 *~;
#X obj 82 348 dac~;
#X floatatom 300 83 5 0 0 0 - - -, f 5;
#X obj 300 107 * 0.01;
#X obj 300 129 osc~ 1;
#X obj 300 196 osc~;
#X obj 69 248 *~;
#X obj 300 174 +~ 440;
#X obj 82 316 hip~ 500;
#X obj 27 186 expr~ $v1 > 0.5;
#X obj 46 123 osc~ 2000;
#X msg 166 177 1 \, 0 150;
#X obj 300 152 *~ 66;
#X msg 166 226;
#X msg 300 63 8;
#X obj 283 26 loadbang;
#X connect 0 0 1 0;
#X connect 1 0 2 0;
#X connect 2 0 3 0;
#X connect 2 0 4 0;
#X connect 3 0 2 1;
#X connect 4 0 5 0;
#X connect 5 0 7 0;
#X connect 6 0 2 0;
#X connect 7 0 20 0;
#X connect 8 0 9 1;
#X connect 9 0 17 0;
#X connect 11 0 12 0;
#X connect 12 0 13 0;
#X connect 13 0 21 0;
#X connect 14 0 15 1;
#X connect 15 0 9 0;
#X connect 16 0 14 0;
#X connect 17 0 10 0;
#X connect 17 0 10 1;
#X connect 18 0 15 0;
#X connect 19 0 18 0;
#X connect 20 0 8 0;
#X connect 21 0 16 0;
#X connect 23 0 11 0;
#X connect 24 0 23 0;
