#N canvas 723 89 450 383 10;
#X obj 48 163 *~;
#X msg 74 81 1 \, 0 20;
#X obj 74 103 line~;
#X obj 138 163 *~;
#X obj 164 103 line~;
#X obj 98 215 +~;
#X obj 125 319 +~;
#X obj 237 40 inlet;
#X obj 125 344 outlet~;
#X obj 164 126 pow~ 3;
#X obj 48 41 osc~ 750;
#X msg 164 80 1 \, 0 10;
#X obj 98 267 hip~ 500;
#X obj 164 266 bp~ 500 10;
#X obj 139 41 osc~ 2000;
#X connect 0 0 5 0;
#X connect 1 0 2 0;
#X connect 2 0 0 1;
#X connect 3 0 5 1;
#X connect 4 0 9 0;
#X connect 5 0 12 0;
#X connect 5 0 13 0;
#X connect 6 0 8 0;
#X connect 7 0 1 0;
#X connect 7 0 11 0;
#X connect 9 0 3 1;
#X connect 10 0 0 0;
#X connect 11 0 4 0;
#X connect 12 0 6 0;
#X connect 13 0 6 1;
#X connect 14 0 3 0;
