#N canvas 706 181 765 474 10;
#X obj 189 247 line~;
#X obj 149 277 *~;
#X obj 299 247 line~;
#X obj 259 277 *~;
#X obj 199 329 +~;
#X obj 399 247 line~;
#X obj 359 297 *~;
#X obj 359 76 noise~;
#X obj 199 377 +~;
#X obj 149 75 phasor~ 238;
#X obj 259 75 phasor~ 476;
#X obj 359 319 hip~ 523;
#X obj 149 97 -~ 0.5;
#X obj 149 119 abs~;
#X obj 149 141 *~ 4;
#X obj 149 163 -~ 1;
#X text 24 121 triangle wave ->;
#X obj 259 97 -~ 0.5;
#X obj 259 119 abs~;
#X obj 259 141 *~ 4;
#X obj 259 163 -~ 1;
#X obj 359 340 *~ 0.8;
#X msg 189 219 1 \, 0 50;
#X msg 299 219 1 \, 0 50;
#X text 455 273 <- snare noise. Maybe curve instead of line?;
#X obj 199 399 outlet~;
#X obj 422 116 inlet;
#X obj 399 270 pow~ 2;
#X msg 399 219 1 \, 0 200;
#X connect 0 0 1 1;
#X connect 1 0 4 0;
#X connect 2 0 3 1;
#X connect 3 0 4 1;
#X connect 4 0 8 0;
#X connect 5 0 27 0;
#X connect 6 0 11 0;
#X connect 7 0 6 0;
#X connect 8 0 25 0;
#X connect 9 0 12 0;
#X connect 10 0 17 0;
#X connect 11 0 21 0;
#X connect 12 0 13 0;
#X connect 13 0 14 0;
#X connect 14 0 15 0;
#X connect 15 0 1 0;
#X connect 17 0 18 0;
#X connect 18 0 19 0;
#X connect 19 0 20 0;
#X connect 20 0 3 0;
#X connect 21 0 8 1;
#X connect 22 0 0 0;
#X connect 23 0 2 0;
#X connect 26 0 22 0;
#X connect 26 0 23 0;
#X connect 26 0 28 0;
#X connect 27 0 6 1;
#X connect 28 0 5 0;
