#N canvas 392 57 549 617 10;
#X obj 59 554 dac~;
#X obj 59 194 +~;
#X obj 59 338 +~;
#X obj 59 302 *~ 0.5;
#X obj 105 29 osc~ 0.5;
#X obj 105 51 *~ 0.1;
#X msg 58 31 220;
#X floatatom 58 53 5 0 0 0 - - -, f 5;
#X obj 58 86 +~;
#X obj 59 480 *~;
#X obj 93 451 line~;
#X obj 98 360 bng 15 250 50 0 empty empty empty 17 7 0 10 -262144 -1
-1;
#X msg 158 422 1 \, 0 1000;
#X msg 84 413 0 \, 1 750;
#X obj 158 400 delay 2500;
#X obj 59 132 phasor~ 440;
#X obj 139 131 phasor~ 440.2;
#N canvas 734 182 450 300 lf~ 0;
#X obj 180 113 *~ 0.5;
#X obj 92 70 lop~ 750;
#X obj 92 92 lop~ 750;
#X obj 92 115 lop~ 750;
#X obj 92 138 lop~ 750;
#X obj 93 21 inlet~;
#X obj 92 221 outlet~;
#X obj 92 192 +~;
#X obj 180 91 bp~ 750 7;
#X connect 0 0 7 1;
#X connect 1 0 2 0;
#X connect 2 0 3 0;
#X connect 3 0 4 0;
#X connect 4 0 7 0;
#X connect 5 0 1 0;
#X connect 5 0 8 0;
#X connect 7 0 6 0;
#X connect 8 0 0 0;
#X restore 59 248 pd lf~;
#X obj 59 510 *~ 0.5;
#X connect 1 0 17 0;
#X connect 2 0 9 0;
#X connect 3 0 2 0;
#X connect 4 0 5 0;
#X connect 5 0 8 1;
#X connect 6 0 7 0;
#X connect 7 0 8 0;
#X connect 8 0 15 0;
#X connect 9 0 18 0;
#X connect 10 0 9 1;
#X connect 11 0 13 0;
#X connect 11 0 14 0;
#X connect 12 0 10 0;
#X connect 13 0 10 0;
#X connect 14 0 12 0;
#X connect 15 0 1 0;
#X connect 16 0 1 1;
#X connect 17 0 3 0;
#X connect 18 0 0 0;
#X connect 18 0 0 1;
