#N canvas 433 184 450 300 10;
#X obj 70 34 osc~ 220;
#X obj 70 106 *~;
#X obj 104 81 line~;
#X obj 70 148 dac~;
#X msg 104 59 1 \, 0 100;
#X connect 0 0 1 0;
#X connect 1 0 3 0;
#X connect 1 0 3 1;
#X connect 2 0 1 1;
#X connect 4 0 2 0;
