#N canvas 702 149 450 300 10;
#X obj 86 79 -~ 0.5;
#X obj 86 101 abs~;
#X obj 86 123 *~ 4;
#X obj 86 145 -~ 1;
#X obj 86 55 phasor~;
#X connect 0 0 1 0;
#X connect 1 0 2 0;
#X connect 2 0 3 0;
#X connect 4 0 0 0;
